<?xml version="1.0" encoding="utf-8"?>
<!-- Generator: Adobe Illustrator 23.0.1, SVG Export Plug-In . SVG Version: 6.00 Build 0)  -->
<svg version="1.1" id="Layer_1" xmlns="http://www.w3.org/2000/svg" xmlns:xlink="http://www.w3.org/1999/xlink" x="0px" y="0px"
	 viewBox="0 0 800.8 1076.6" enable-background="new 0 0 800.8 1076.6" xml:space="preserve">
<path fill="#FAFAFA" d="M382.4,1077.6c-3.5-0.5-4.8-3-6.1-5.9c-7.3-16.8-14.7-33.6-22-50.4c-0.6-1.5-1.5-2.9-2.2-4.3
	c-0.3,0-0.6,0.1-0.9,0.1c-0.2,1.3-0.5,2.7-0.5,4c0.2,16.4,0.5,32.7,0.8,49.1c0.1,5.2,0,5.3-5.1,5.3c-8.6,0-17.3-0.1-25.9,0.1
	c-3.3,0.1-4.2-1.1-4.1-4.3c0.6-16.1,1.5-32.3,1.5-48.4c0-23-0.8-45.9-1.3-68.9c-0.1-4.6,0-4.6,4.6-4.7c8.2-0.2,16.4-0.2,24.5-0.8
	c4-0.3,6,1.1,7.6,4.7c8.2,18.5,16.6,36.9,25,55.3c0.9,1.9,1.9,3.8,3,5.6c1.9,2.7,2.9,2.6,4.6-0.1c0.6-1,1.2-2.1,1.8-3.2
	c9.3-19.1,18.6-38.1,27.7-57.3c1.6-3.3,3.4-4.6,7.1-4.5c8,0.2,16.1-0.3,24.2-0.4c4.4-0.1,4.7,0.2,4.6,4.4
	c-0.4,16.4-1.1,32.7-1.3,49.1c-0.2,13.4,0.2,26.9,0.4,40.3c0.2,9.6,0.6,19.3,1,28.9c0.1,2.9-0.9,4.3-4,4.2c-9.5-0.1-19.1-0.1-28.6,0
	c-3.1,0-4.2-1.2-4.1-4.2c0.5-17.4,0.9-34.7,1.3-52.1c0-1.4-0.3-2.7-0.4-4.1c-0.3,0-0.6-0.1-0.9-0.1c-0.6,1.1-1.3,2.2-1.8,3.4
	c-4.9,11.7-9.7,23.3-14.6,35c-3,7.1-6.1,14.1-9.3,21.1c-0.6,1.2-1.8,2.1-2.8,3.2C385.1,1077.6,383.8,1077.6,382.4,1077.6z"/>
<path fill="#FAFAFA" d="M438.8,753.6c-29.4,0-58.4,0-87.8,0c1.7-8.3,3.5-16.4,5-24.6c5.1-28.4,10.7-56.7,14.9-85.2
	c2.9-19.9,4.3-40,5.7-60.1c1.2-17.3,1.3-34.7,2-52.1c0.7-17,1.7-34,2.5-51c0.7-15.6-4.2-28.7-17.1-38.1c-9.8-7.1-19.8-13.8-30-20.4
	c-3.3-2.1-7.2-3.4-10.9-4.9c-4.5-1.7-8.7-0.5-12.4,2.2c-3.3,2.4-6.5,5.2-9.6,7.9c-13,11.6-27.7,20.1-44.9,23.7
	c-26.1,5.3-50,0.4-71.6-15.4c-4.9-3.6-9.4-7.5-14-11.4c-12.4-10.6-26-10.4-40.8-4.3c2.4,7.1,4.5,14.3,7.2,21.2
	c10,25.8,24.7,48.7,42.2,69.8c15.8,19,32.5,37.4,47.9,56.7c8.8,11.1,16.1,23.4,23.9,35.3c12.6,19.5,19.3,41.1,22.9,63.8
	c4.1,26.2,0.1,51-13.9,73.9c-4.1,6.7-9.9,10.1-17.7,10.2c-16,0.2-32.1,0.3-48.1,0.5c-1.1,0-2.2,0-3.9,0c2.4-5,4.4-9.4,6.5-13.8
	c8.3-17.4,14.3-35.5,16.8-54.6c3.7-28.2-0.5-55.4-13-81c-5.4-10.9-11.7-21.5-18.7-31.4c-30.6-43.7-54.5-90.6-67.7-142.5
	c-1.8-7.2-6.3-10.9-12.9-13.1c-10.4-3.4-20.9-6.5-31-10.7c-12-5-22.2-12.9-31.6-21.8c-19.8-18.6-32.2-41.3-35.9-68.1
	c-5.4-39.1,5.2-73.9,32.4-102.7c18.8-19.9,42.5-31.9,69.8-35.8c25-3.6,49-0.7,72,10.2c28.9,13.7,47.6,36.5,59.3,65.6
	c0.9,2.2,1.8,4.3,2.8,6.5c2.9,6,7.9,9.1,14.4,10.3c33.2,5.9,56.3,24.5,69.9,55.4c9.2,20.9,8.1,41.9,2.8,63.2c-0.8,3-1.7,5.9-2.4,9
	c-0.2,0.7,0.2,2,0.8,2.4c15.9,10.3,31.8,20.5,47.7,30.8c0.4,0.2,0.8,0.4,1.9,1c-0.7-4.4-1.2-8.2-2.1-11.9
	c-4.8-19.6-10.2-39.1-14.6-58.9c-4.3-19.8-7.7-39.9-11.4-59.9c-3.6-20.1-4.9-40.4-4.1-60.9c0.4-9.9-3.4-15.1-13.1-17.5
	c-25.2-6.3-43.6-21.4-56.5-43.3c-10.5-17.8-13.4-37.3-11.1-57.6c2.5-21.8,11.3-40.6,27.5-55.7c15.1-14,33-21.9,53.4-24.3
	c18.5-2.1,36.1,0.8,52.6,9.7c27.4,14.9,44.5,37.3,49.4,68.3c6.4,40.4-14.9,75-45.9,93.6c-10.4,6.2-21.9,10-34.1,11.2
	c-1.3,0.1-2.7,0.4-3.9,0.8c-5.1,1.5-7.3,3.9-6.8,9.3c1.1,10.1,2.4,20.2,4.1,30.2c7.4,43.3,18.8,85.7,32.1,127.6
	c0.3,0.9,0.7,1.9,0.8,2.3c2.7-2.4,5.9-4.5,8.3-7.3c11.5-13.5,22.8-27.2,34.2-40.7c1.7-2,1.8-3.3,0.1-5.4c-4.7-6-9.2-12.1-13.7-18.3
	c-12.5-17.6-16.8-37.3-15.1-58.5c1.4-17.6,6.8-33.8,17.6-47.8c16.1-20.9,37.4-33.2,63.8-36.3c18.8-2.2,36.5,1.5,53.2,10.3
	c21.8,11.6,38.3,28.1,46,52c12,37,0.2,86.4-41.9,109.5c-13.9,7.6-28.6,12.8-44.7,12.9c-12.7,0.1-24.9-2.6-36.6-7.4
	c-11.9-4.9-12.5-4.9-21,4.5c-7,7.7-14,15.5-21,23.2c-13.7,15.2-17.1,32.7-13.3,52.5c3.6,18.6,6.7,37.4,9.3,56.2
	c2.7,19.8,4.8,39.7,6.8,59.7c2.4,23,4.6,46.1,6.7,69.1c1.5,16.7,2.8,33.5,4.1,50.2c1.5,20.2,2.8,40.4,4.1,60.6
	C438.1,739.4,438.4,746.3,438.8,753.6z M118,305.6c0.6,0.1,1.2,0.3,1.8,0.4c-0.3,3.4-0.5,6.8-1,10.2c-1,7.6-2.8,15.3-2.9,22.9
	c-0.2,12.3,0.3,24.6,1.4,36.8c0.7,8.1,2.7,16.1,4.7,24c1.3,5.2,4.9,7.2,10.2,6.7c26.6-2.9,50-12.8,68.6-32.4
	c24.8-26.1,36.4-57.2,30.7-93.1c-5.8-37-25-65.4-58.3-83.5c-23-12.5-47.6-16.6-73.4-12.1C67.6,191,43,208.7,25.4,235.8
	C9.5,260.2,3.8,286.9,9.5,315.7c4.4,22.3,14.9,41.4,31.5,57.2c13.4,12.6,27.9,23.2,45.9,28.2c5.7,1.6,11.4,2.8,17.6,2.2
	c0-8.3,0-16.2,0-24.1c0.1-17.5-0.7-35.1,5.5-52C112.7,319.9,115.3,312.7,118,305.6z M454.2,341.6c12.2,7.4,24.7,11.6,38.3,11.9
	c18.9,0.5,36.2-5.6,51.9-15.6c12-7.7,20.6-18.6,26.2-31.7c9.6-22.4,12.3-45.3,2.3-68.3c-7.7-17.6-20.7-30.5-37.2-40.2
	c-11.4-6.7-23.4-11.1-36.7-11.4c-17.2-0.4-32.9,4.8-47.2,14.1c-27.7,17.9-41.7,43.2-39,76.5c1.6,20.1,10.2,37.6,23.4,52.8
	c5.1,5.8,9.3,5.9,15.2,0.7c8.3-7.2,16.7-14.2,25-21.3c0.3-0.3,0.7-0.4,1.9-1C470,319.6,462.3,330.4,454.2,341.6z M349.2,156.8
	c0.1,0.6,0.1,1,0.1,1.5c0,15.1,0,30.3,0,45.4c0,7.7,3.4,10.6,11.1,10.1c14.3-0.9,27.2-6.2,38.4-14.5c27.7-20.6,40.3-48,34.2-82.6
	c-6.4-36.5-34-64.9-73.2-68.3c-18.2-1.6-35.2,1.8-50.9,11c-30.1,17.7-45.6,52.8-39,87.9c6.3,34,28.7,53.4,59.7,64.6
	c5.6,2,8.9-0.2,10.6-6c0.3-1,0.6-1.9,0.7-2.9c1.6-14.6,3.2-29.1,4.7-43.7C345.7,156.8,346.4,155.8,349.2,156.8z M256.7,375.3
	c5.9,2.6,11.7,5.2,17.6,7.6c9,3.6,18,7.4,27.2,10.6c6.1,2.1,9.4,0.1,11.1-6.1c1.3-5.1,2.3-10.2,3.1-15.4c1.6-10.5,2.8-21.2,0.6-31.7
	c-4.8-22.8-18.3-39.5-37.4-52.1c-9.8-6.5-20.5-10.5-32.5-10.1c-5.6,0.2-5.7,0.2-5.2,5.7c1.2,11.8,0.3,23.5-1.8,35.1
	c-6.6,35.6-26.9,61.6-56.8,80.8c-4.1,2.6-8.5,4.8-12.9,7.3c0.4,0.9,0.7,1.7,1.1,2.3c4.5,8.3,11.5,14.2,19.3,19.2
	c18.6,12,39.1,15.3,60.8,11.8c13.8-2.2,26.1-7.8,36.4-17.4c4.6-4.3,8.4-9.2,11.3-14.9c-1.5-1-2.6-1.9-3.8-2.7
	c-12.5-8.6-24.9-17.2-37.4-25.7C255.6,378.4,254.6,377.4,256.7,375.3z"/>
<path fill="#FAFAFA" d="M594.5,747.5c-1.6,0-2.7,0-3.8,0c-23.1,0.1-46.2,0-69.3,0.3c-6.8,0.1-11.5-2.6-15.1-8
	c-10.1-15-16.9-31.5-20.7-49.2c-3-13.9-4.4-27.9-3.8-42c0.9-25.2,7.1-49.2,17.2-72.3c10.7-24.6,23.9-47.8,40.4-68.7
	c18.5-23.4,38-45.8,57.1-68.7c4.9-5.9,9.8-11.7,14.7-17.5c29.1-34.6,50.4-73.5,65.3-116c2.9-8.3,5.1-16.9,7.2-25.5
	c2.2-9.1,3.7-18.3,5.5-27.5c1.2-6-0.3-7.8-6.4-7.9c-19.6-0.3-38.9-2.7-56.9-11c-37.2-17.2-61.1-45.6-69.7-85.7
	c-8.6-40.6,5.7-95.9,46.1-123.5c16.1-11,34.1-17.8,53.3-20.9c24.6-4,48.6-1.9,71.6,8.5c9.7,4.4,18.4,10.1,26.6,16.8
	c24.3,19.7,36.8,45.8,42,76c4.1,23.6,2.1,46.6-8.1,68.5c-6.9,14.9-16.5,27.8-29.2,38.1c-11.2,9.1-22.9,17.6-36.5,23
	c-9.7,3.9-15,11.2-14.9,21.8c0.2,33.1-8,64.5-19.1,95.2c-18.5,51.1-42.9,99.3-73.7,144.2c-9.2,13.5-18.9,26.7-27.1,40.8
	c-13,22.3-20.8,46.5-23.6,72.2c-3.2,29.4,1,58.1,11,85.8c6,16.7,12.5,33.3,18.7,49.9C593.5,745,593.8,745.9,594.5,747.5z
	 M685.3,144.8c0.2,0,0.4,0,0.6,0c0.7,1.5,1.5,3,2.2,4.5c7.7,15.9,14.1,32.2,16.7,49.7c1,6.5,1.5,13.1,2.5,19.6
	c1.2,7.6,4.6,9.4,11.8,6.8c1.6-0.6,3.1-1.2,4.7-1.9c14-6.2,25.8-15.6,35.7-26.8c24.1-27.4,31.9-59.5,24.9-95.1
	c-4.5-22.9-14.6-43-32.2-59c-9.1-8.3-19.2-15-30.2-20.5c-19.6-9.7-40.3-13.5-61.9-10.3c-22.3,3.3-42.1,12.8-59.7,26.6
	c-14.5,11.3-24.9,25.9-31.4,43.2c-5.2,14-7,28.4-6.6,43.2c0.6,20.7,5.8,40,16.7,57.6c15,24.2,37.2,38.6,63.9,46.7
	c12.8,3.9,25.9,6.1,39.3,5.5c4.8-0.2,7.2-2.2,8.1-7c0.5-2.6,0.9-5.3,0.8-8c-0.3-7.6-0.7-15.2-1.3-22.8c-0.7-8.7-1.6-17.4-2.4-26.1
	C686.8,162.1,686.1,153.4,685.3,144.8z"/>
<path fill="#FAFAFA" d="M557.9,857.6c-0.2,1.1-0.6,2.2-0.6,3.4c0.3,13.9,0.6,27.8,0.9,41.7c0.1,6.3,0.2,12.6,0.4,18.8
	c0.1,3-1.3,3.9-4.1,3.9c-9.4-0.1-18.8-0.1-28.2,0c-3.1,0-4.1-1.2-4-4.2c0.6-17,1.4-34,1.5-51.1c0.1-16.5-0.7-32.9-1.1-49.4
	c-0.1-5.8-0.1-11.7-0.3-17.5c-0.1-2.3,1-2.9,3-3c5-0.3,10.1-0.6,15.1-1c3-0.3,6-0.8,8.9-1.3c3.5-0.6,5.7,0.6,7.8,3.5
	c11.1,15.5,22.4,30.8,33.7,46.2c4,5.4,8.1,10.8,12.1,16.1c0.4,0.5,0.7,1.2,1.3,1.6c1.1,0.8,2.4,1.4,3.6,2c0.4-1.2,1.3-2.4,1.2-3.6
	c-0.2-10.4-0.6-20.8-0.9-31.2c-0.3-9.7-0.6-19.5-1-29.2c-0.1-2.5,1.3-3,3.3-3c9.7-0.3,19.5-0.6,29.2-1c2.8-0.1,3.8,0.8,3.7,3.6
	c-0.4,11.8-0.7,23.5-0.9,35.3c-0.2,10.8-0.6,21.5-0.6,32.3c-0.1,16.8-0.1,33.6,0,50.4c0,3.2-1.1,4.5-4.2,4.5
	c-8.5-0.2-17-0.1-25.5-0.6c-1.7-0.1-3.6-2-4.8-3.6c-10.5-13.7-20.8-27.5-31.2-41.3c-5.1-6.7-10.3-13.3-15.4-20
	c-0.7-0.9-1.2-1.8-1.8-2.7C558.7,857.1,558.3,857.3,557.9,857.6z"/>
<path fill="#FAFAFA" d="M661.1,1017.4c0.2-3.1,0.7-6.1,0.6-9.2c-0.6-16.2-1.3-32.5-1.9-48.7c-0.3-8.6-0.3-8.7,8.1-9.3
	c7.9-0.5,15.9-0.6,23.8-1.1c3.3-0.2,4.4,0.9,4.3,4.2c-0.7,17.8-1.4,35.6-1.7,53.4c-0.3,21.1-0.2,42.2-0.2,63.2c0,5.3,0,5.4-5.4,5.3
	c-7.4-0.1-14.8-0.5-22.2-0.4c-3.1,0-4.9-1.3-6.7-3.6c-13.8-18.4-27.7-36.7-41.6-54.9c-2.4-3.1-5.1-6-7.6-9c-0.4,0.2-0.7,0.3-1.1,0.5
	c-0.1,1.4-0.4,2.7-0.4,4.1c0.3,19.2,0.7,38.3,1.1,57.5c0,1.2,0.3,2.6-0.2,3.6c-0.4,1-1.7,2.3-2.6,2.3c-10,0.2-20,0.1-29.9,0.1
	c-2.4,0-3.1-1.4-3-3.5c0.3-8.7,0.7-17.5,0.9-26.2c0.3-16,0.9-32,0.8-48.1c-0.1-14.5-0.8-28.9-1.4-43.3c-0.1-2.9,0.8-3.8,3.8-4
	c7.2-0.5,14.5-1.2,21.7-2.3c3.9-0.6,6.4,0.3,8.8,3.5c15.1,20.5,30.5,40.9,45.8,61.4c1.4,1.9,3.3,3.4,4.9,5.2
	C660.1,1017.9,660.6,1017.6,661.1,1017.4z"/>
<path fill="#FAFAFA" d="M46.6,949.2c12.3,0,24.7,0,37,0c6.7,0,7.5,0.7,8.1,7.3c0.6,6.2,1.3,12.5,1.9,18.7c0.4,4.2,0,4.4-4.1,4.1
	c-13.5-0.7-27.1-1.4-40.6-2c-1.5-0.1-3.3-0.1-4.6,0.6c-1.4,0.7-3.3,2.2-3.4,3.4c-0.3,3.6,0,7.4,0.3,11c0.3,3,2.4,4.6,5.3,4.5
	c12.3-0.3,24.7-0.4,36.9-1.2c7.2-0.4,7.3-0.8,6.9,6.1c-0.5,7.4-1.1,14.7-1.5,22.1c-0.2,2.6-1.4,3-3.7,3c-13.5-0.5-27.1-0.9-40.6-1.3
	c-2.5-0.1-4.1,1-3.9,3.8c0.2,3.5,0.2,6.9,0.4,10.4c0.2,2.8,1.9,4.6,4.5,5.1c3.2,0.6,6.4,1.3,9.6,1.2c12.3-0.3,24.6-1,36.9-1.4
	c4.3-0.2,4.8,0.1,4.3,4.5c-0.9,7.9-2.2,15.7-3.4,23.5c-0.4,2.8-2.1,4.2-5.2,3.9c-7.1-0.6-14.3-1.1-21.5-1.2
	c-19.3-0.2-38.6-0.1-57.9-0.2c-4.5,0-4.7-0.1-4.5-4.5c0.6-17.4,1.9-34.7,1.8-52.1c0-21.3-1.1-42.6-1.8-63.8c0-1,0-2-0.1-3
	c-0.2-2.7,1.6-2.8,3.5-2.7c9,0.2,17.9,0.5,26.9,0.6c4.1,0.1,8.3,0,12.4,0C46.6,949.7,46.6,949.4,46.6,949.2z"/>
<path fill="#FAFAFA" d="M253.8,949.2c12.3,0,24.7,0,37,0c6.8,0,7.4,0.4,8.2,7.2c0.8,6.7,1.3,13.4,1.9,20c0.3,2.6-0.8,3.2-3.3,3.1
	c-13.6-0.8-27.3-1.6-41-2.1c-8.7-0.3-9.6,0.7-9.5,9.5c0,1.6,0.2,3.1,0.5,4.7c0.8,4.1,2.3,5.5,6.4,5.4c12.7-0.3,25.3-0.8,38-1.3
	c0.8,0,1.6-0.1,2.4-0.1c4-0.1,4,0.2,3.6,4.2c-0.8,7.8-1.3,15.6-1.8,23.4c-0.2,3.5-0.8,3.7-4.3,3.6c-13.8-0.5-27.5-0.8-41.3-1.1
	c-2.1,0-3.5,1.1-3.4,3.3c0.1,3.7,0.3,7.4,0.5,11.1c0.1,2.8,1.8,4.4,4.3,4.9c3.4,0.7,6.9,1.4,10.3,1.3c12.3-0.3,24.6-1,36.9-1.4
	c4.5-0.2,4.8,0,4.4,4.4c-0.9,8-2.1,15.9-3.4,23.9c-0.4,2.7-2.1,3.9-5,3.7c-7.4-0.5-14.8-1.1-22.1-1.2c-19.1-0.2-38.1-0.1-57.2-0.2
	c-4.6,0-4.9-0.2-4.7-4.7c0.6-17.7,1.9-35.4,1.9-53.1c0-21.2-1.1-42.3-1.9-63.5c-0.2-4.6-0.1-4.9,4.7-4.9
	C228.4,949.2,241.1,949.2,253.8,949.2z"/>
<path fill="#FAFAFA" d="M511.9,949.2c12.6,0,25.1,0,37.7,0c6,0,7.2,1.1,7.7,7.2c0.5,6.6,1.1,13.2,1.7,19.7c0.3,2.7-0.5,3.6-3.3,3.4
	c-13.6-0.8-27.3-1.5-40.9-2.1c-1.8-0.1-3.6,0.2-5.3,0.4c-2.7,0.3-4,1.7-4,4.4c0.1,3.3,0.1,6.7,0.4,10c0.4,3.1,2.5,4.8,5.6,4.7
	c12.7-0.3,25.3-0.6,37.9-1.3c6.9-0.4,7-0.7,6.4,6c-0.6,7.6-1.3,15.2-1.9,22.7c-0.2,2.2-1.2,2.5-3.1,2.5c-13.5-0.5-27.1-0.9-40.6-1.3
	c-4.5-0.1-4.9,0.5-5,5c0,2.5,0,4.9,0.1,7.4c0.2,4.5,1.6,6.3,6,7.3c2.8,0.6,5.8,1,8.6,0.9c12.1-0.4,24.2-1,36.2-1.4
	c5.7-0.2,6.3,0.6,5.4,6.4c-1.1,6.8-1.9,13.7-3.1,20.5c-0.8,4.7-2.1,5.2-7,4.8c-6.7-0.6-13.4-0.8-20.1-0.9
	c-19.1-0.1-38.1-0.1-57.2-0.2c-5,0-5.2-0.1-5-5c0.6-15.4,1.7-30.9,1.9-46.3c0.2-16-0.4-32-0.8-48.1c-0.2-7.7-0.5-15.5-1-23.2
	c-0.2-2.9,0.9-3.7,3.6-3.6C485.9,949.3,498.9,949.2,511.9,949.2z"/>
<path fill="#FAFAFA" d="M459.8,799.1c12.8,0,25.6,0,38.3,0c5.2,0,6.2,1,6.7,6.2c0.7,6.8,1.3,13.6,2,20.4c0.3,2.8-0.6,3.7-3.5,3.6
	c-13.9-0.8-27.7-1.4-41.6-2.1c-1,0-2-0.1-3,0c-4,0.3-5.5,1.7-5.6,5.7c-0.1,2.9,0.3,5.8,0.5,8.7c0.3,3.6,2.6,5.3,5.8,5.3
	c11.8-0.2,23.5-0.2,35.3-1.2c9.3-0.7,9.5-1.1,8.8,8.1c-0.5,6.6-1,13.2-1.3,19.8c-0.1,2.5-1,3.2-3.5,3.1c-13.3-0.6-26.6-1-40-1.4
	c-4.9-0.1-5.7,0.8-5.6,5.7c0,2.9,0.4,5.8,0.5,8.7c0.1,2.8,1.8,4.3,4.2,5c1.9,0.6,3.9,1.3,5.9,1.3c11.2-0.2,22.4-0.6,33.6-0.9
	c3.2-0.1,6.5-0.2,9.7-0.4c1.9-0.1,2.8,0.7,2.6,2.6c-1.2,8.8-2.4,17.7-3.8,26.5c-0.3,2.1-2,3-4.3,2.9c-6.5-0.4-13-1-19.4-1
	c-20.1-0.2-40.1-0.1-60.2-0.2c-4.7,0-5.1-0.3-4.9-5c0.6-17.5,1.9-34.9,1.9-52.4c0-21.4-1.1-42.8-1.9-64.2c-0.1-4.4-0.1-4.6,4.2-4.6
	C434,799.1,446.9,799.1,459.8,799.1z"/>
<path fill="#FAFAFA" d="M252.3,799.1c12.8,0,25.5,0,38.3,0c5.3,0,6.4,1.1,6.9,6.4c0.6,6.5,1.3,12.9,1.9,19.4c0.4,4.2,0.2,4.5-4,4.3
	c-14-0.6-28-1.4-41.9-2c-1.5-0.1-3.3,0-4.6,0.7c-1.3,0.7-2.8,2.2-2.9,3.5c-0.3,3.4,0,6.9,0.3,10.3c0.3,3.5,2.7,5.2,6,5.1
	c11.9-0.3,23.8-0.4,35.6-1.3c9.1-0.6,9.2-0.9,8.3,8c-0.6,6.6-1.1,13.2-1.5,19.7c-0.1,2.8-1.2,3.4-4,3.3c-13.3-0.6-26.6-1-40-1.3
	c-4.3-0.1-5,0.9-5,5.2c0,2.8-0.1,5.6,0.3,8.4c0.5,4,2.3,5.7,6.2,6.4c2.7,0.5,5.6,0.8,8.3,0.8c12.4-0.4,24.8-0.9,37.3-1.4
	c4.5-0.2,4.9,0,4.4,4.4c-0.9,7.9-2.1,15.7-3.4,23.5c-0.5,3.1-2.3,4.2-5.8,3.8c-5.5-0.7-11.2-0.9-16.8-0.9c-20.5-0.1-41-0.1-61.5-0.2
	c-4.9,0-5.2-0.1-5-5.2c0.6-17.5,1.9-34.9,1.9-52.4c0-20.9-1.1-41.9-1.8-62.8c0-0.8,0-1.6-0.1-2.3c-0.4-2.6,0.7-3.5,3.4-3.5
	C226.1,799.2,239.2,799.1,252.3,799.1z"/>
<path fill="#FAFAFA" d="M195.8,893.5c-0.5,8.2-1,15.4-1.5,22.7c-0.2,2.4-0.8,4.9-1.1,7.3c-0.3,2.3-1.4,3.3-3.8,3.2
	c-6.2-0.3-12.3-0.6-18.5-0.7c-18.6-0.3-37.2-0.5-55.8-0.7c-4.9-0.1-5-0.3-5.7-4.9c-0.7-5.2-1.6-10.3-2.5-15.4
	c-0.5-2.9-0.7-5.6,2.1-7.5c0.4-0.3,0.7-0.9,1-1.4c12.4-19.7,24.8-39.4,37.2-59.2c1.2-2,2.2-4.1,3.3-6.2c1-1.8,0.3-2.8-1.6-3.1
	c-1.1-0.2-2.2-0.2-3.4-0.1c-10.9,0.2-21.7,0.5-32.6,0.7c-5.3,0.1-5.8-1.3-4.4-6.5c1.9-7,2.7-14.2,4-21.4c0.1-0.4,0.1-0.9,0.3-1.7
	c1-0.1,2.1-0.2,3.2-0.2c24.1,0.3,48.2,0.6,72.3,0.8c2.6,0,4,1,4.2,3.6c0.4,5.2,0.8,10.5,1.3,15.7c0.3,3.3-0.8,6-2.7,8.7
	c-13.7,20.6-27.2,41.3-40.8,61.9c-1.3,2-2.4,4.2-4,7.2C163.2,897.1,179.1,896.1,195.8,893.5z"/>
<path fill="#FAFAFA" d="M705.7,979.6c1-4.7,1.9-8.5,2.5-12.4c0.7-4.9,1.2-9.7,1.7-14.6c0.3-2.8,1.6-3.6,4.4-3.4
	c13.2,0.8,26.4,1.9,39.6,1.8c13.3-0.1,26.6-1.5,39.9-2.3c2-0.1,4,0,6.4,0c0,2.1-0.1,4.1,0,6c0.2,6.7,0.4,13.4,0.9,20.1
	c0.2,2.6-0.7,3.4-3.2,3.3c-7.7-0.4-15.4-0.7-23.1-1.2c-2.1-0.1-2.8,0.4-2.8,2.5c0.2,19.8,0.3,39.6,0.5,59.5
	c0.1,11.1,0.5,22.2,0.9,33.3c0.1,2.3-0.9,3.3-3.1,3.3c-10.3,0-20.6,0-30.9,0.1c-3.5,0-4.3-1.6-4.2-4.8c0.6-16.9,1.3-33.8,1.5-50.7
	c0.2-13.3-0.2-26.7-0.2-40c0-2.6-1.1-2.8-3.4-2.6C724.3,978.2,715.5,978.8,705.7,979.6z"/>
<path fill="#FAFAFA" d="M360.3,925.3c-13,0-26,0-39,0c-4.6,0-5.3-0.7-5.2-5.2c0.2-25.9,0.5-51.8,0.4-77.7c0-13-0.6-26-1.1-39
	c-0.1-3.3,1.2-4.3,4.3-4.2c10.1,0.1,20.1,0.1,30.2-0.1c2.9-0.1,3.6,0.8,3.4,3.7c-0.8,12.5-1.6,25-1.9,37.6
	c-0.5,17.1-0.5,34.3-0.7,51.4c-0.1,5.5,0.1,5.7,5.7,5.5c14.6-0.5,29.1-1.1,43.7-1.6c6.5-0.2,6.7-0.1,6.2,6.4
	c-0.5,6.6-1.1,13.1-1.8,19.7c-0.5,4.4-1.3,4.9-5.5,4.9c-12.9,0-25.8,0-38.7,0C360.3,926.2,360.3,925.8,360.3,925.3z"/>
<path fill="#FAFAFA" d="M111.8,1029.7c-0.6-25-1.1-50-1.6-75c-0.1-5.1,0-5,4.9-5c9.8,0,19.5,0,29.2-0.3c2.7-0.1,3.2,0.9,3,3.3
	c-2.1,29.6-3,59.3-2.6,89c0.1,5.7,0,5.8,5.8,5.7c15.1-0.4,30.2-1,45.4-1.4c4.5-0.1,4.7,0,4.4,4.4c-0.5,7.3-1.2,14.5-1.9,21.7
	c-0.3,3.3-1.7,4.8-5.4,4.7c-26-0.6-52-1-78-1.4c-3.7-0.1-4.3-0.8-4.3-4.7c0-13.7,0-27.4,0-41
	C111.1,1029.7,111.5,1029.7,111.8,1029.7z"/>
<path fill="#FAFAFA" d="M699.3,812.2c-0.6,13.9-1.5,27.7-1.7,41.6c-0.2,15.1,0.4,30.2,0.6,45.4c0.1,7.6,0.1,15.2,0.3,22.9
	c0.1,2.3-1.1,3.1-2.9,3.1c-10.7,0.1-21.5,0.1-32.2,0.1c-2.3,0-3.2-1.5-3.1-3.8c0.6-12.5,1.3-25.1,1.5-37.6
	c0.3-17.9,0.2-35.8,0.2-53.8c0-9.2-0.3-18.4-0.6-27.6c-0.1-2.5,0.9-3.3,3.3-3.3c10.4,0.1,20.8,0.1,31.2,0c2.6,0,3.6,1,3.5,3.6
	c-0.1,3.1,0,6.3,0,9.4C699.5,812.2,699.4,812.2,699.3,812.2z"/>
</svg>
